<?xml version="1.0" encoding="utf-8"?>
<!-- Generator: Adobe Illustrator 24.3.0, SVG Export Plug-In . SVG Version: 6.00 Build 0)  -->
<svg version="1.1" id="图层_1" xmlns="http://www.w3.org/2000/svg" xmlns:xlink="http://www.w3.org/1999/xlink" x="0px" y="0px"
	 viewBox="0 0 115 149" style="enable-background:new 0 0 115 149;" xml:space="preserve">
<style type="text/css">
	.st0{fill:#DB0707;}
</style>
<g id="椭圆_4_xA0_图像_1_">
</g>
<g id="图层_2_1_">
	<circle class="st0" cx="50.4" cy="22.9" r="14.4"/>
	<path class="st0" d="M6.2,62.3l35.2-6.3l-17.6,86.4l22.3-4.7l13.3-85.9l43.7-9l-5-10.2l-34.9,2c-0.8,1-4.9,5.8-11,6.2
		c-3,0.2-5.5-0.6-5.8-0.7c-2.3-0.8-3.8-2-4.7-2.8L7.7,39.9L6.2,62.3z"/>
	<path class="st0" d="M57.5,95.4L78,89.6c-2,11-4,22-6,33c12.7-0.5,25.3-1,38-1.6c0.1-0.3,0.3-0.9,0.3-1.5c0-0.8-0.2-1.5-0.3-1.9
		l-18.9-7.7l6-35.9c0-0.2-0.2-0.5-0.5-0.9c-0.4-0.4-0.9-0.5-1-0.5l-37,2.9L57.5,95.4z"/>
</g>
</svg>
